<svg xmlns="http://www.w3.org/2000/svg" xmlns:xlink="http://www.w3.org/1999/xlink" version="1.1" id="Layer_1" x="0px" y="0px" viewBox="0 0 512 512" style="enable-background:new 0 0 512 512;" xml:space="preserve">
<g id="XMLID_1_">
	<polygon id="XMLID_3_" stroke-width="8" stoke="green" points="414.3,499 422.6,499 422.6,0 204.8,0 89.4,115.4 89.4,512 129.4,492.5 161,508.3 192.7,492.5    224.3,508.3 256,492.5 287.7,508.3 319.3,492.5 351,508.3 382.6,492.5 422.6,512 422.6,499 414.3,499 418,492.5 382.6,474.8    351,490.6 319.3,474.8 287.7,490.6 256,474.8 224.3,490.6 192.7,474.8 161,490.6 129.4,474.8 105.2,485.9 105.2,121.9 211.3,15.8    406.8,15.8 406.8,499 414.3,499 418,492.5  "/>
	<polygon id="XMLID_4_" points="97.7,126.6 216,126.6 216,8.4 200.1,8.4 200.1,110.8 97.7,110.8  "/>
	<path id="XMLID_5_" d="M285.8,390.1l-100.5-92.2v-4.7h-8.4v8.4h47.5v-8.4l-0.9,7.4c0,0,1.9,0,5.6,0c9.3,0,28.9-0.9,47.5-10.2   c9.3-4.7,18.6-12.1,25.1-21.4c6.5-10.2,10.2-23.3,10.2-39.1c0-17.7-5.6-30.7-14-41c-13-14.9-30.7-22.3-45.6-26.1   c-14.9-3.7-26.1-3.7-27-3.7l0,0h-55.9V175h55.9v-8.4v8.4l0,0c1.9,0,20.5,0.9,38.2,8.4c8.4,3.7,16.8,9.3,23.3,16.8   c5.6,7.4,10.2,16.8,10.2,30.7s-2.8,23.3-8.4,30.7c-7.4,11.2-18.6,17.7-29.8,20.5c-11.2,3.7-23.3,3.7-28.9,3.7c-0.9,0-2.8,0-2.8,0   h-0.9l0,0l0,0h-55.9v19.5l104.3,95.9L285.8,390.1L285.8,390.1z"/>
	<polyline id="XMLID_6_" points="168.5,174.1 343.5,174.1 343.5,158.3 168.5,158.3  "/>
	<polyline id="XMLID_7_" points="168.5,214.1 343.5,214.1 343.5,198.3 168.5,198.3  "/>
</g>
</svg>
